<svg width="95" height="34" viewBox="0 0 95 34" fill="none" xmlns="http://www.w3.org/2000/svg">
<g clip-path="url(#clip0_732_1259)">
<path d="M0 4H29V17.5849C29 21.3238 27.0054 24.7789 23.7676 26.6485L14.5001 32L5.23246 26.6485C1.99457 24.7789 3.32377e-06 21.3238 3.32377e-06 17.5849L0 4Z" fill="#FFDD2D"/>
<path fill-rule="evenodd" clip-rule="evenodd" d="M8 11V15.5077C8.6164 14.8116 9.73715 14.3406 11.0186 14.3406H12.4111V19.5807C12.4111 20.9748 12.0323 22.3399 11.4703 23.0111H17.5276C16.9668 22.3392 16.5889 20.9758 16.5889 19.5834V14.3406H17.9815C19.2629 14.3406 20.3836 14.8116 21 15.5077V11H8Z" fill="#333333"/>
<path d="M47.3698 16.7732C48.8816 17.2023 49.5632 18.3866 49.5632 19.5711C49.5632 20.9833 48.7308 22.1676 47.3945 22.6726C46.7396 22.9241 45.9576 23 44.8995 23H36V11H44.7229C45.8313 11 46.6135 11.076 47.2179 11.2772C48.6046 11.7319 49.3107 12.79 49.3107 14.076C49.3107 15.3866 48.4536 16.2939 47.3698 16.7732ZM44.2436 15.7397C44.5967 15.7397 44.8738 15.714 45.0503 15.6391C45.5039 15.4369 45.7061 15.0838 45.7061 14.6805C45.7061 14.2772 45.5039 13.9241 45.0749 13.7732C44.8738 13.6973 44.5967 13.6726 44.2436 13.6726H39.4794V15.7397H44.2436ZM44.3698 20.2269C44.7229 20.2269 45 20.2023 45.2011 20.1262C45.6549 19.9498 45.8571 19.5967 45.8571 19.1687C45.8571 18.7643 45.6549 18.4369 45.2514 18.2861C45.0503 18.2101 44.7732 18.1855 44.3698 18.1855H39.4794V20.2269H44.3698Z" fill="#333333"/>
<path d="M54.5767 21.2604L53.8962 23H49.761L54.6772 11H60.0214L64.9375 23H60.8281L60.123 21.2604H54.5767ZM55.4839 18.6135H59.2403L57.5007 13.7732H57.2235L55.4839 18.6135Z" fill="#333333"/>
<path d="M69.3399 11L75.6672 17.58V11H79.1466V23H75.9197L69.4415 16.3699V23H65.9622V11H69.3399Z" fill="#333333"/>
<path d="M84.9334 18.4626V23H81.2776V11H84.9334V15.5129H85.9413L90.3525 11H94.9413L89.0922 16.7486L95.1681 23H90.3023L85.9413 18.4626H84.9334Z" fill="#333333"/>
</g>
<defs>
<clipPath id="clip0_732_1259">
<rect width="95" height="34" fill="white"/>
</clipPath>
</defs>
</svg>
